<svg xmlns="http://www.w3.org/2000/svg" width="169" height="80.001" viewBox="0 0 169 80.001"><g transform="translate(-3772 -1277)"><path d="M169,80H0V0H169V80ZM63.448,14.872V44.536a37.3,37.3,0,0,0,1.058,9.61,15.96,15.96,0,0,0,3.406,6.68,13.866,13.866,0,0,0,6.106,3.9,28.576,28.576,0,0,0,9.158,1.267,28.576,28.576,0,0,0,9.158-1.267,13.866,13.866,0,0,0,6.106-3.9,15.96,15.96,0,0,0,3.407-6.68,37.3,37.3,0,0,0,1.058-9.61V14.872H92.248V45.688c0,3.627-.689,6.223-2.106,7.938-1.472,1.78-3.75,2.646-6.966,2.646s-5.494-.866-6.966-2.646c-1.417-1.715-2.106-4.311-2.106-7.938V14.872ZM23.2,50.584,16,57.856a24.441,24.441,0,0,0,7.866,5.85A26.667,26.667,0,0,0,35.08,65.992c6.035,0,11.045-1.575,14.49-4.554a15.057,15.057,0,0,0,5.094-11.79c0-4.33-1.234-7.624-3.771-10.071-2.5-2.41-6.259-3.991-11.493-4.833l-4.968-.792A8.954,8.954,0,0,1,29.878,32.3a4.588,4.588,0,0,1-1.422-3.753c0-3.157,2.583-4.9,7.272-4.9,4.625,0,8.057,1.51,10.8,4.752L53.8,21.064c-4.236-4.682-10.1-7.056-17.424-7.056-5.714,0-10.507,1.472-13.86,4.257a13.829,13.829,0,0,0-5,11.007,16.628,16.628,0,0,0,.919,5.7,12.022,12.022,0,0,0,2.816,4.432,14.819,14.819,0,0,0,4.8,3.11,26.9,26.9,0,0,0,6.873,1.733l4.968.648a7.686,7.686,0,0,1,4.671,1.917A4.78,4.78,0,0,1,43.72,50.3a5.344,5.344,0,0,1-1.962,4.4A9.386,9.386,0,0,1,35.8,56.344a16.449,16.449,0,0,1-6.867-1.449A17.2,17.2,0,0,1,23.2,50.584Zm90.5-35.712V65.128h26.64a12.284,12.284,0,0,0,9.261-4.194A15.139,15.139,0,0,0,153.3,50.8a11.469,11.469,0,0,0-3.87-9.144A11.728,11.728,0,0,0,142,38.992V38.56a9.526,9.526,0,0,0,6.6-2.592c1.833-1.843,2.763-4.6,2.763-8.208a12.785,12.785,0,0,0-3.519-9.36c-2.336-2.308-5.7-3.528-9.729-3.528Zm23.544,41.04h-12.6V44.392h12.6c2.93,0,4.68,1.7,4.68,4.536v2.448C141.928,54.216,140.179,55.912,137.248,55.912ZM135.52,35.464H124.648V24.088H135.52a4.234,4.234,0,0,1,4.608,4.608v2.16A4.234,4.234,0,0,1,135.52,35.464Z" transform="translate(3772 1277)" fill="#0057d0"/></g></svg>