<svg xmlns="http://www.w3.org/2000/svg" width="171" height="80.001" viewBox="0 0 171 80.001"><g transform="translate(-2500 -725)"><path d="M-98-290H-269v-80H-98v80Zm-33.672-67a23.646,23.646,0,0,0-9.216,1.728,18.7,18.7,0,0,0-6.984,5.076,23.685,23.685,0,0,0-4.464,8.28,37.01,37.01,0,0,0-1.584,11.268,35.872,35.872,0,0,0,1.584,11.2,22.3,22.3,0,0,0,4.464,7.992,18.345,18.345,0,0,0,6.984,4.824,25.034,25.034,0,0,0,9.216,1.62,20.09,20.09,0,0,0,11.556-3.132,22.438,22.438,0,0,0,7.38-8.892l-8.928-5.184a13.391,13.391,0,0,1-3.564,5.292,9.244,9.244,0,0,1-6.444,2.2,10.116,10.116,0,0,1-7.74-3.132c-1.935-2.078-2.916-5.143-2.916-9.108v-8.064c0-3.965.981-7.03,2.916-9.108a10.117,10.117,0,0,1,7.74-3.132c2.723,0,4.819.642,6.228,1.908a11.285,11.285,0,0,1,3.132,5.076l9.432-4.9a19.7,19.7,0,0,0-7.272-8.964A21.446,21.446,0,0,0-131.672-357Zm-51.264,0a24.183,24.183,0,0,0-9.288,1.728,19.723,19.723,0,0,0-7.164,5.04,23.265,23.265,0,0,0-4.644,8.208,35.165,35.165,0,0,0-1.656,11.232,35.957,35.957,0,0,0,1.584,11.16,23.29,23.29,0,0,0,4.392,8.064,18.592,18.592,0,0,0,6.552,4.9,19.793,19.793,0,0,0,8.064,1.656c3.775,0,6.8-.848,9-2.52a9.594,9.594,0,0,0,3.888-6.336h.36v7.992h9.216v-28.008h-19.8v9.144h9.36v2.52a6.626,6.626,0,0,1-.756,3.24,7.059,7.059,0,0,1-2.124,2.34,9.6,9.6,0,0,1-3.168,1.44,15.167,15.167,0,0,1-3.816.468,11.115,11.115,0,0,1-8.136-2.988c-2.007-1.982-3.024-5.1-3.024-9.252v-8.064c0-4.2,1.017-7.329,3.024-9.288a11.2,11.2,0,0,1,8.136-2.952,10.387,10.387,0,0,1,6.84,2.052,12.3,12.3,0,0,1,3.6,5l8.928-5.112a19.947,19.947,0,0,0-7.7-8.748A22.484,22.484,0,0,0-182.936-357Zm-71.064.864h0v29.664a39.191,39.191,0,0,0,1.044,9.612,15.612,15.612,0,0,0,3.42,6.7,14.206,14.206,0,0,0,6.12,3.888,29.017,29.017,0,0,0,9.144,1.26,29.017,29.017,0,0,0,9.144-1.26,14.205,14.205,0,0,0,6.12-3.888,15.612,15.612,0,0,0,3.42-6.7,39.192,39.192,0,0,0,1.044-9.612v-29.664H-225.2v30.816c0,3.536-.7,6.213-2.088,7.956s-3.735,2.628-6.984,2.628-5.6-.884-6.984-2.628-2.088-4.42-2.088-7.956v-30.816Z" transform="translate(2769 1095)" fill="#ee7b30"/></g></svg>