<svg xmlns="http://www.w3.org/2000/svg" width="195" height="80.001" viewBox="0 0 195 80.001"><g transform="translate(-1926 -1095)"><path d="M-432,80H-627V0h195V80Zm-33.48-66a23.646,23.646,0,0,0-9.216,1.728A18.7,18.7,0,0,0-481.68,20.8a23.68,23.68,0,0,0-4.464,8.28,37,37,0,0,0-1.584,11.268,35.88,35.88,0,0,0,1.584,11.2,22.321,22.321,0,0,0,4.464,7.992,18.353,18.353,0,0,0,6.984,4.824,25.035,25.035,0,0,0,9.216,1.62,20.09,20.09,0,0,0,11.556-3.132,22.443,22.443,0,0,0,7.38-8.892l-8.928-5.184a13.4,13.4,0,0,1-3.564,5.292,9.247,9.247,0,0,1-6.444,2.2,10.117,10.117,0,0,1-7.74-3.132c-1.935-2.078-2.916-5.143-2.916-9.108V35.96c0-3.965.981-7.03,2.916-9.108a10.116,10.116,0,0,1,7.74-3.132c2.724,0,4.82.642,6.228,1.908A11.275,11.275,0,0,1-456.12,30.7l9.432-4.9a19.693,19.693,0,0,0-7.272-8.964A21.438,21.438,0,0,0-465.48,14Zm-60.84,36.555h0l-7.2,7.281a25.8,25.8,0,0,0,7.848,5.876,25.333,25.333,0,0,0,11.232,2.272,27.192,27.192,0,0,0,8.352-1.19,17.506,17.506,0,0,0,6.156-3.351,14.275,14.275,0,0,0,3.78-5.19,16.746,16.746,0,0,0,1.3-6.63c0-4.352-1.26-7.759-3.744-10.127s-6.359-3.98-11.52-4.793l-4.968-.793a9.813,9.813,0,0,1-4.572-1.639,4.522,4.522,0,0,1-1.4-3.706,4.147,4.147,0,0,1,1.8-3.562,9.509,9.509,0,0,1,5.472-1.282,14.047,14.047,0,0,1,6.444,1.318,14.611,14.611,0,0,1,4.356,3.385l7.272-7.357a20.408,20.408,0,0,0-7.416-5.264A25.936,25.936,0,0,0-513.144,14a26.2,26.2,0,0,0-7.956,1.117,17.365,17.365,0,0,0-5.9,3.136,13.794,13.794,0,0,0-3.708,4.83,14.7,14.7,0,0,0-1.3,6.2A14.033,14.033,0,0,0-528.3,39.448c2.46,2.534,6.4,4.159,11.7,4.829l4.968.643c2.341.332,3.916.967,4.68,1.89A5.271,5.271,0,0,1-505.8,50.27a5.433,5.433,0,0,1-1.944,4.352c-1.29,1.089-3.3,1.642-5.976,1.642a16.583,16.583,0,0,1-6.894-1.427,17.246,17.246,0,0,1-5.706-4.281Zm-37.44,5.853V65.12h23.9V56.408h-6.48V23.576h6.48V14.864h-23.9v8.712h6.48V56.408h-6.48ZM-612,14.864V65.12h18.936a25.124,25.124,0,0,0,9.072-1.584,18.377,18.377,0,0,0,6.984-4.716,21.648,21.648,0,0,0,4.464-7.848,34.682,34.682,0,0,0,1.584-10.98,34.674,34.674,0,0,0-1.584-10.98,21.642,21.642,0,0,0-4.464-7.848,18.365,18.365,0,0,0-6.984-4.716,25.106,25.106,0,0,0-9.072-1.584ZM-593.064,55.4h-7.992V24.584h7.992a10.614,10.614,0,0,1,7.7,2.736c1.863,1.815,2.808,4.77,2.808,8.784V43.88c0,4.013-.945,6.968-2.808,8.784A10.617,10.617,0,0,1-593.064,55.4Z" transform="translate(2553 1095)" fill="#db0833"/></g></svg>