<svg xmlns="http://www.w3.org/2000/svg" width="117" height="80.001" viewBox="0 0 117 80.001"><g transform="translate(-2500 -1658)"><path d="M-340,339H-457V259h117v80Zm-94.8-30.445h0l-7.2,7.281a25.8,25.8,0,0,0,7.848,5.876,25.345,25.345,0,0,0,11.232,2.271,27.2,27.2,0,0,0,8.352-1.189,17.494,17.494,0,0,0,6.156-3.352,14.269,14.269,0,0,0,3.78-5.189,16.755,16.755,0,0,0,1.3-6.631c0-4.351-1.26-7.758-3.744-10.126s-6.361-3.981-11.52-4.793l-4.968-.793a9.813,9.813,0,0,1-4.572-1.639,4.522,4.522,0,0,1-1.4-3.706,4.148,4.148,0,0,1,1.8-3.563,9.51,9.51,0,0,1,5.472-1.283,14.058,14.058,0,0,1,6.444,1.318,14.639,14.639,0,0,1,4.356,3.385l7.272-7.356a20.423,20.423,0,0,0-7.416-5.265,25.952,25.952,0,0,0-10.008-1.8,26.223,26.223,0,0,0-7.956,1.117,17.369,17.369,0,0,0-5.9,3.136,13.777,13.777,0,0,0-3.708,4.83,14.694,14.694,0,0,0-1.3,6.2,14.033,14.033,0,0,0,3.708,10.165c2.461,2.535,6.4,4.16,11.7,4.829l4.968.643c2.342.332,3.916.968,4.68,1.891a5.266,5.266,0,0,1,1.152,3.46,5.434,5.434,0,0,1-1.944,4.353c-1.289,1.089-3.3,1.641-5.976,1.641a16.586,16.586,0,0,1-6.894-1.427,17.242,17.242,0,0,1-5.706-4.281Zm34.7-35.692,16.2,50.256h12.24l16.344-50.256H-366.04l-7.488,24.12-3.816,15.768h-.216l-3.96-15.768-7.488-24.12H-400.1Z" transform="translate(2957 1399)" fill="#df3030"/></g></svg>