<svg xmlns="http://www.w3.org/2000/svg" width="80" height="80.001" viewBox="0 0 80 80.001"><g transform="translate(-2500 -1198)"><path d="M-175-121h-80v-80h80v80Zm-39.248-66a24.183,24.183,0,0,0-9.288,1.728,19.717,19.717,0,0,0-7.164,5.04,23.238,23.238,0,0,0-4.644,8.208A35.165,35.165,0,0,0-237-160.792a35.933,35.933,0,0,0,1.584,11.16,23.29,23.29,0,0,0,4.392,8.064,18.586,18.586,0,0,0,6.552,4.9,19.794,19.794,0,0,0,8.064,1.656c3.774,0,6.8-.848,9-2.52a9.594,9.594,0,0,0,3.888-6.336h.36v7.992h9.216v-28.008h-19.8v9.144h9.36v2.52a6.626,6.626,0,0,1-.756,3.24,7.06,7.06,0,0,1-2.124,2.34,9.61,9.61,0,0,1-3.168,1.44,15.178,15.178,0,0,1-3.816.468,11.115,11.115,0,0,1-8.136-2.988c-2.007-1.982-3.024-5.1-3.024-9.252v-8.064c0-4.2,1.017-7.329,3.024-9.288a11.2,11.2,0,0,1,8.136-2.952,10.391,10.391,0,0,1,6.84,2.052,12.308,12.308,0,0,1,3.6,5l8.928-5.112a19.95,19.95,0,0,0-7.7-8.748A22.484,22.484,0,0,0-214.248-187Z" transform="translate(2755 1399)" fill="#df3030"/></g></svg>