<svg xmlns="http://www.w3.org/2000/svg" width="117" height="80.001" viewBox="0 0 117 80.001"><g transform="translate(-2500 -1571)"><path d="M-76,151H-193V71H-76v80ZM-109.96,85a23.646,23.646,0,0,0-9.216,1.728A18.7,18.7,0,0,0-126.16,91.8a23.7,23.7,0,0,0-4.464,8.28,37.011,37.011,0,0,0-1.584,11.268,35.872,35.872,0,0,0,1.584,11.2,22.321,22.321,0,0,0,4.464,7.992,18.354,18.354,0,0,0,6.984,4.824,25.035,25.035,0,0,0,9.216,1.62A20.086,20.086,0,0,0-98.4,133.852a22.439,22.439,0,0,0,7.38-8.892l-8.928-5.184a13.391,13.391,0,0,1-3.564,5.292,9.241,9.241,0,0,1-6.444,2.2,10.116,10.116,0,0,1-7.74-3.132c-1.935-2.078-2.916-5.143-2.916-9.108V106.96c0-3.965.981-7.03,2.916-9.108a10.117,10.117,0,0,1,7.74-3.132c2.723,0,4.819.642,6.228,1.908A11.269,11.269,0,0,1-100.6,101.7l9.432-4.9a19.7,19.7,0,0,0-7.272-8.964A21.446,21.446,0,0,0-109.96,85Zm-60.84,36.556h0l-7.2,7.281a25.8,25.8,0,0,0,7.848,5.876,25.351,25.351,0,0,0,11.232,2.271,27.2,27.2,0,0,0,8.352-1.189,17.494,17.494,0,0,0,6.156-3.352,14.263,14.263,0,0,0,3.78-5.189,16.746,16.746,0,0,0,1.3-6.63c0-4.353-1.26-7.76-3.744-10.127s-6.359-3.98-11.52-4.793l-4.968-.793a9.815,9.815,0,0,1-4.572-1.639,4.522,4.522,0,0,1-1.4-3.706,4.148,4.148,0,0,1,1.8-3.563,9.514,9.514,0,0,1,5.472-1.283,14.058,14.058,0,0,1,6.444,1.318,14.62,14.62,0,0,1,4.356,3.386l7.272-7.357a20.408,20.408,0,0,0-7.416-5.264A25.935,25.935,0,0,0-157.624,85a26.2,26.2,0,0,0-7.956,1.118,17.371,17.371,0,0,0-5.9,3.136,13.787,13.787,0,0,0-3.708,4.83,14.7,14.7,0,0,0-1.3,6.2,14.034,14.034,0,0,0,3.708,10.164c2.461,2.535,6.4,4.16,11.7,4.83l4.968.642c2.341.331,3.915.968,4.68,1.891a5.262,5.262,0,0,1,1.152,3.46,5.434,5.434,0,0,1-1.944,4.353c-1.289,1.089-3.3,1.641-5.976,1.641a16.586,16.586,0,0,1-6.894-1.427,17.241,17.241,0,0,1-5.706-4.281Z" transform="translate(2693 1500)" fill="#d8315e"/></g></svg>