<svg xmlns="http://www.w3.org/2000/svg" width="155.001" height="80.001" viewBox="0 0 155.001 80.001"><g transform="translate(-2208 -1298)"><path d="M-472,80H-627V0h155V80Zm-34.232-66a23.646,23.646,0,0,0-9.216,1.728,18.7,18.7,0,0,0-6.984,5.076,23.68,23.68,0,0,0-4.464,8.28,37,37,0,0,0-1.584,11.268,35.879,35.879,0,0,0,1.584,11.2,22.32,22.32,0,0,0,4.464,7.992,18.353,18.353,0,0,0,6.984,4.824,25.035,25.035,0,0,0,9.216,1.62,20.09,20.09,0,0,0,11.556-3.132,22.444,22.444,0,0,0,7.38-8.892l-8.928-5.184a13.4,13.4,0,0,1-3.564,5.292,9.247,9.247,0,0,1-6.444,2.2,10.116,10.116,0,0,1-7.74-3.132c-1.935-2.078-2.916-5.143-2.916-9.108V35.96c0-3.965.981-7.03,2.916-9.108a10.116,10.116,0,0,1,7.74-3.132c2.724,0,4.82.642,6.228,1.908a11.275,11.275,0,0,1,3.132,5.076l9.432-4.9a19.693,19.693,0,0,0-7.272-8.964A21.439,21.439,0,0,0-506.232,14Zm-55.584.864V65.12h30.1V55.4h-19.152V14.864Zm-50.184,0V65.12h18.936a25.124,25.124,0,0,0,9.072-1.584,18.378,18.378,0,0,0,6.984-4.716,21.648,21.648,0,0,0,4.464-7.848,34.683,34.683,0,0,0,1.584-10.98,34.675,34.675,0,0,0-1.584-10.98,21.643,21.643,0,0,0-4.464-7.848,18.365,18.365,0,0,0-6.984-4.716,25.106,25.106,0,0,0-9.072-1.584ZM-593.064,55.4h-7.992V24.584h7.992a10.614,10.614,0,0,1,7.7,2.736c1.863,1.815,2.808,4.77,2.808,8.784V43.88c0,4.013-.945,6.968-2.808,8.784A10.617,10.617,0,0,1-593.064,55.4Z" transform="translate(2835 1298)" fill="#00a8c2"/></g></svg>