<svg xmlns="http://www.w3.org/2000/svg" width="80" height="80.001" viewBox="0 0 80 80.001"><g transform="translate(-2500 -1389)"><path d="M-276,70h-80V-10h80V70ZM-337,5V55.256h18.936a25.124,25.124,0,0,0,9.072-1.584,18.386,18.386,0,0,0,6.984-4.716,21.662,21.662,0,0,0,4.464-7.848,34.68,34.68,0,0,0,1.584-10.98,34.672,34.672,0,0,0-1.584-10.98,21.657,21.657,0,0,0-4.464-7.848,18.375,18.375,0,0,0-6.984-4.716A25.106,25.106,0,0,0-318.064,5Zm18.936,40.536h-7.992V14.72h7.992a10.614,10.614,0,0,1,7.7,2.736c1.863,1.815,2.808,4.77,2.808,8.784v7.776c0,4.013-.945,6.968-2.808,8.784A10.617,10.617,0,0,1-318.064,45.536Z" transform="translate(2856 1399)" fill="#df3030"/></g></svg>