<svg xmlns="http://www.w3.org/2000/svg" width="119" height="80.001" viewBox="0 0 119 80.001"><g transform="translate(-2500 -1483)"><path d="M66,63H-53V-17H66V63ZM-30.8,34.555h0L-38,41.837a25.8,25.8,0,0,0,7.848,5.877A25.345,25.345,0,0,0-18.92,49.984,27.22,27.22,0,0,0-10.568,48.8a17.506,17.506,0,0,0,6.156-3.352,14.279,14.279,0,0,0,3.78-5.189,16.754,16.754,0,0,0,1.3-6.631C.664,29.271-.6,25.864-3.08,23.5S-9.44,19.516-14.6,18.7l-4.968-.794a9.823,9.823,0,0,1-4.572-1.638,4.524,4.524,0,0,1-1.4-3.706A4.148,4.148,0,0,1-23.744,9,9.51,9.51,0,0,1-18.272,7.72a14.048,14.048,0,0,1,6.444,1.319,14.611,14.611,0,0,1,4.356,3.385L-.2,5.067A20.408,20.408,0,0,0-7.616-.2,25.936,25.936,0,0,0-17.624-2,26.225,26.225,0,0,0-25.58-.883a17.383,17.383,0,0,0-5.9,3.136,13.794,13.794,0,0,0-3.708,4.83,14.7,14.7,0,0,0-1.3,6.2A14.033,14.033,0,0,0-32.78,23.448c2.461,2.535,6.4,4.16,11.7,4.829l4.968.643c2.341.332,3.916.967,4.68,1.89a5.27,5.27,0,0,1,1.152,3.46,5.437,5.437,0,0,1-1.944,4.353c-1.29,1.089-3.3,1.641-5.976,1.641a16.585,16.585,0,0,1-6.894-1.427A17.24,17.24,0,0,1-30.8,34.556ZM9.736-1.136V49.12H28.672a25.124,25.124,0,0,0,9.072-1.584,18.377,18.377,0,0,0,6.984-4.716,21.646,21.646,0,0,0,4.464-7.848,34.68,34.68,0,0,0,1.584-10.98,34.672,34.672,0,0,0-1.584-10.98,21.642,21.642,0,0,0-4.464-7.848A18.365,18.365,0,0,0,37.744.448a25.106,25.106,0,0,0-9.072-1.584ZM28.672,39.4H20.68V8.584h7.992a10.614,10.614,0,0,1,7.7,2.736c1.863,1.815,2.808,4.77,2.808,8.784V27.88c0,4.013-.945,6.968-2.808,8.784A10.617,10.617,0,0,1,28.672,39.4Z" transform="translate(2553 1500)" fill="#d8315e"/></g></svg>