<svg xmlns="http://www.w3.org/2000/svg" width="126" height="80.001" viewBox="0 0 126 80.001"><g transform="translate(-2948 -1371)"><path d="M521-150H395v-80H521v80Zm-88.248-67a24.183,24.183,0,0,0-9.288,1.728,19.717,19.717,0,0,0-7.164,5.04,23.222,23.222,0,0,0-4.644,8.208A35.166,35.166,0,0,0,410-190.792a35.932,35.932,0,0,0,1.584,11.16,23.3,23.3,0,0,0,4.392,8.064,18.6,18.6,0,0,0,6.552,4.9,19.794,19.794,0,0,0,8.064,1.656c3.774,0,6.8-.848,9-2.52a9.6,9.6,0,0,0,3.888-6.336h.36v7.992h9.216v-28.008h-19.8v9.144h9.36v2.52a6.626,6.626,0,0,1-.756,3.24,7.067,7.067,0,0,1-2.124,2.34,9.63,9.63,0,0,1-3.168,1.44,15.177,15.177,0,0,1-3.816.468,11.118,11.118,0,0,1-8.136-2.988c-2.007-1.982-3.024-5.1-3.024-9.252v-8.064c0-4.2,1.017-7.329,3.024-9.288a11.194,11.194,0,0,1,8.136-2.952,10.391,10.391,0,0,1,6.84,2.052,12.3,12.3,0,0,1,3.6,5l8.928-5.112a19.951,19.951,0,0,0-7.7-8.748A22.484,22.484,0,0,0,432.752-217ZM474.3-177.832h16.776l3.6,11.952h11.376L489.7-216.136H476.168l-16.56,50.256H470.7l3.6-11.951Zm14.112-9.288h-11.52l5.544-19.08h.36l5.616,19.079Z" transform="translate(2553 1601)" fill="#012a36"/></g></svg>