<svg xmlns="http://www.w3.org/2000/svg" width="119" height="80.001" viewBox="0 0 119 80.001"><g transform="translate(-2024 -1197)"><path d="M-511,80H-630V0h119V80Zm-81.751-67a23.647,23.647,0,0,0-9.216,1.728,18.7,18.7,0,0,0-6.984,5.076,23.673,23.673,0,0,0-4.464,8.28A36.983,36.983,0,0,0-615,39.352a35.848,35.848,0,0,0,1.584,11.2,22.3,22.3,0,0,0,4.464,7.992,18.345,18.345,0,0,0,6.984,4.824,25.035,25.035,0,0,0,9.216,1.62A20.09,20.09,0,0,0-581.2,61.852a22.445,22.445,0,0,0,7.38-8.892l-8.928-5.184a13.41,13.41,0,0,1-3.564,5.292,9.244,9.244,0,0,1-6.444,2.2,10.116,10.116,0,0,1-7.74-3.132c-1.935-2.078-2.916-5.143-2.916-9.108V34.96c0-3.965.981-7.03,2.916-9.108a10.116,10.116,0,0,1,7.74-3.132c2.722,0,4.818.642,6.228,1.908a11.285,11.285,0,0,1,3.132,5.076l9.432-4.9a19.7,19.7,0,0,0-7.272-8.964A21.446,21.446,0,0,0-592.752,13Zm22.032.864h0l16.2,50.256h12.24l16.344-50.256h-10.728l-7.488,24.12-3.816,15.768h-.216l-3.96-15.768-7.488-24.12H-570.72Z" transform="translate(2654 1197)" fill="#392bb4"/></g></svg>