<svg xmlns="http://www.w3.org/2000/svg" width="125" height="80.001" viewBox="0 0 125 80.001"><g transform="translate(-4451 -1288)"><path d="M125,80H0V0H125V80ZM68.424,15.008V65.264H87.36a24.93,24.93,0,0,0,9.073-1.577,18.516,18.516,0,0,0,6.974-4.723,21.272,21.272,0,0,0,4.476-7.855,35.26,35.26,0,0,0,1.581-10.973,35.26,35.26,0,0,0-1.581-10.973,21.272,21.272,0,0,0-4.476-7.855,18.516,18.516,0,0,0-6.974-4.723,24.93,24.93,0,0,0-9.073-1.577Zm-38.736,38.3H46.464l3.6,11.952H61.44L45.1,15.008H31.56L15,65.264H26.088l3.6-11.951ZM87.36,55.544H79.368V24.728H87.36c3.328,0,5.914.93,7.686,2.763,1.875,1.94,2.826,4.886,2.826,8.757v7.776c0,3.871-.951,6.817-2.826,8.757C93.274,54.615,90.688,55.544,87.36,55.544ZM43.8,44.024H32.28l5.544-19.08h.36L43.8,44.023Z" transform="translate(4451 1288)" fill="#0050be"/></g></svg>