<svg xmlns="http://www.w3.org/2000/svg" width="216.122" height="133" viewBox="0 0 216.122 133"><path d="M216.122,133v0H0V0H216.122V133ZM122.365,24.724v83.55h31.481a41.738,41.738,0,0,0,15.082-2.633,30.532,30.532,0,0,0,11.611-7.84,35.961,35.961,0,0,0,7.421-13.047A57.6,57.6,0,0,0,190.593,66.5a57.616,57.616,0,0,0-2.633-18.254A35.969,35.969,0,0,0,180.538,35.2a30.551,30.551,0,0,0-11.611-7.84,41.768,41.768,0,0,0-15.082-2.633ZM86.455,53.451h.359v54.822h17.117V24.724H84.54L64.311,63.865h-.239L43.6,24.724H24.332v83.55H41.449V52.614h.359L48.152,65.78l15.92,29.446L80.351,65.661l6.1-12.208Zm67.39,38.663H140.559V40.883h13.287c5.4,0,9.709,1.53,12.808,4.549s4.668,7.932,4.668,14.6V72.962c0,6.673-1.571,11.586-4.668,14.6S159.247,92.114,153.846,92.114Z" fill="#fff"/></svg>