<svg xmlns="http://www.w3.org/2000/svg" width="1271.001" height="133" viewBox="0 0 1271.001 133">
  <g id="Group_3" data-name="Group 3" transform="translate(-139 -163)">
    <path id="Subtraction_35" data-name="Subtraction 35" d="M1536-135H265V-268H1536v133Zm-77.241-49.3h0l-12.006,12.141a43.018,43.018,0,0,0,13.087,9.8,34.973,34.973,0,0,0,8.523,2.84,51.771,51.771,0,0,0,10.2.947,45.372,45.372,0,0,0,13.927-1.983,29.171,29.171,0,0,0,10.265-5.589,23.8,23.8,0,0,0,6.3-8.653,27.929,27.929,0,0,0,2.161-11.056,27.979,27.979,0,0,0-1.56-9.69,18.874,18.874,0,0,0-4.682-7.2,25.718,25.718,0,0,0-7.924-4.972,49.753,49.753,0,0,0-11.286-3.02l-8.284-1.322c-3.506-.552-6.071-1.471-7.624-2.732s-2.341-3.341-2.341-6.18a6.916,6.916,0,0,1,3-5.941c1.991-1.419,5.061-2.138,9.124-2.138a23.428,23.428,0,0,1,10.745,2.2,24.36,24.36,0,0,1,7.263,5.645l12.127-12.267a34.046,34.046,0,0,0-12.366-8.778,43.265,43.265,0,0,0-16.689-3.007,43.692,43.692,0,0,0-13.266,1.863,28.963,28.963,0,0,0-9.844,5.229,23,23,0,0,0-6.183,8.054,24.509,24.509,0,0,0-2.161,10.338,27.78,27.78,0,0,0,1.546,9.526,20.827,20.827,0,0,0,4.637,7.422,23.427,23.427,0,0,0,7.968,5.2,45.374,45.374,0,0,0,11.541,2.855l8.284,1.071c3.9.553,6.53,1.614,7.8,3.153a8.784,8.784,0,0,1,1.921,5.769,9.062,9.062,0,0,1-3.242,7.259c-2.151,1.815-5.5,2.736-9.965,2.736a27.656,27.656,0,0,1-11.5-2.38,28.744,28.744,0,0,1-9.514-7.139Zm-244.916-59.514v49.464a65.362,65.362,0,0,0,1.741,16.027,26.059,26.059,0,0,0,5.7,11.165,23.7,23.7,0,0,0,10.205,6.483,48.408,48.408,0,0,0,15.248,2.1,48.4,48.4,0,0,0,15.247-2.1,23.69,23.69,0,0,0,10.205-6.483,26.061,26.061,0,0,0,5.7-11.165,65.349,65.349,0,0,0,1.741-16.027v-49.464h-17.768v51.385a30.909,30.909,0,0,1-.87,7.759,14.832,14.832,0,0,1-2.611,5.507,10.568,10.568,0,0,1-4.652,3.287,19.981,19.981,0,0,1-6.993,1.1,19.986,19.986,0,0,1-6.994-1.1,10.57,10.57,0,0,1-4.652-3.287,14.826,14.826,0,0,1-2.611-5.507,30.912,30.912,0,0,1-.87-7.759v-51.385ZM1146.731-184.3h0l-12.006,12.141a43.013,43.013,0,0,0,13.087,9.8,34.982,34.982,0,0,0,8.524,2.84,51.778,51.778,0,0,0,10.205.947,45.378,45.378,0,0,0,13.926-1.983,29.173,29.173,0,0,0,10.265-5.589,23.781,23.781,0,0,0,6.3-8.653,27.93,27.93,0,0,0,2.162-11.056,27.973,27.973,0,0,0-1.561-9.69,18.875,18.875,0,0,0-4.682-7.2,25.725,25.725,0,0,0-7.924-4.972,49.758,49.758,0,0,0-11.286-3.02l-8.284-1.322c-3.5-.552-6.07-1.471-7.624-2.732s-2.341-3.341-2.341-6.18a6.917,6.917,0,0,1,3-5.941c1.991-1.419,5.061-2.138,9.124-2.138a23.429,23.429,0,0,1,10.745,2.2,24.382,24.382,0,0,1,7.264,5.645l12.126-12.267a34.034,34.034,0,0,0-12.366-8.778,43.26,43.26,0,0,0-16.688-3.007,43.692,43.692,0,0,0-13.266,1.863,28.958,28.958,0,0,0-9.845,5.229,23,23,0,0,0-6.183,8.054,24.51,24.51,0,0,0-2.161,10.338,27.787,27.787,0,0,0,1.546,9.526,20.833,20.833,0,0,0,4.637,7.422,23.432,23.432,0,0,0,7.968,5.2,45.368,45.368,0,0,0,11.541,2.855l8.284,1.071c3.9.553,6.53,1.614,7.8,3.153a8.779,8.779,0,0,1,1.921,5.769,9.062,9.062,0,0,1-3.241,7.259c-2.151,1.815-5.5,2.736-9.965,2.736a27.659,27.659,0,0,1-11.5-2.38,28.745,28.745,0,0,1-9.515-7.139Zm-58.947-60.955a40.25,40.25,0,0,0-15.127,2.762,30.586,30.586,0,0,0-11.646,8.223,38.356,38.356,0,0,0-7.444,13.567,60.983,60.983,0,0,0-2.641,18.789,60.977,60.977,0,0,0,2.641,18.788,38.341,38.341,0,0,0,7.444,13.567,30.6,30.6,0,0,0,11.646,8.224,40.264,40.264,0,0,0,15.127,2.761,40.272,40.272,0,0,0,15.127-2.761,30.607,30.607,0,0,0,11.645-8.224A38.343,38.343,0,0,0,1122-183.123a60.973,60.973,0,0,0,2.641-18.788A60.979,60.979,0,0,0,1122-220.7a38.348,38.348,0,0,0-7.444-13.567,30.6,30.6,0,0,0-11.645-8.223A40.257,40.257,0,0,0,1087.784-245.253Zm-136.745,0a39.434,39.434,0,0,0-15.368,2.882,31.184,31.184,0,0,0-11.646,8.464,39.5,39.5,0,0,0-7.443,13.807,61.677,61.677,0,0,0-2.641,18.789,59.8,59.8,0,0,0,2.641,18.669,37.206,37.206,0,0,0,7.443,13.326,30.617,30.617,0,0,0,11.646,8.043,41.746,41.746,0,0,0,15.368,2.7,40.817,40.817,0,0,0,10.64-1.306,28.3,28.3,0,0,0,8.629-3.917,33.8,33.8,0,0,0,6.888-6.318,42.411,42.411,0,0,0,5.417-8.509l-14.887-8.645a22.358,22.358,0,0,1-5.943,8.825,13.288,13.288,0,0,1-4.7,2.746,18.771,18.771,0,0,1-6.048.915,19.261,19.261,0,0,1-7.249-1.306A15.77,15.77,0,0,1,938.133-180a16.817,16.817,0,0,1-3.647-6.408,28.952,28.952,0,0,1-1.216-8.779v-13.447a28.95,28.95,0,0,1,1.216-8.779,16.811,16.811,0,0,1,3.647-6.408,15.768,15.768,0,0,1,5.657-3.917,19.26,19.26,0,0,1,7.249-1.306c4.541,0,8.035,1.07,10.385,3.182a18.8,18.8,0,0,1,5.222,8.464l15.727-8.164a39.774,39.774,0,0,0-5.312-8.839,27.882,27.882,0,0,0-6.814-6.107,29.36,29.36,0,0,0-8.584-3.557A44.532,44.532,0,0,0,951.039-245.253ZM849.591-184.3h0l-12.006,12.141a43.023,43.023,0,0,0,13.086,9.8,34.981,34.981,0,0,0,8.524,2.84,51.772,51.772,0,0,0,10.2.947,45.372,45.372,0,0,0,13.927-1.983,29.174,29.174,0,0,0,10.264-5.589,23.788,23.788,0,0,0,6.3-8.653,27.93,27.93,0,0,0,2.161-11.056,27.979,27.979,0,0,0-1.561-9.69,18.868,18.868,0,0,0-4.683-7.2,25.714,25.714,0,0,0-7.924-4.972,49.749,49.749,0,0,0-11.285-3.02l-8.285-1.322c-3.5-.552-6.07-1.471-7.623-2.732s-2.341-3.341-2.341-6.18a6.916,6.916,0,0,1,3-5.941c1.992-1.419,5.062-2.138,9.125-2.138a23.428,23.428,0,0,1,10.745,2.2,24.372,24.372,0,0,1,7.263,5.645l12.126-12.267a34.038,34.038,0,0,0-12.366-8.778,43.261,43.261,0,0,0-16.688-3.007,43.694,43.694,0,0,0-13.266,1.863,28.969,28.969,0,0,0-9.845,5.229,23,23,0,0,0-6.183,8.054,24.52,24.52,0,0,0-2.161,10.338,27.777,27.777,0,0,0,1.546,9.526,20.827,20.827,0,0,0,4.637,7.422,23.43,23.43,0,0,0,7.969,5.2,45.367,45.367,0,0,0,11.54,2.855l8.285,1.071c3.9.553,6.529,1.614,7.8,3.153a8.78,8.78,0,0,1,1.922,5.769,9.062,9.062,0,0,1-3.242,7.259c-2.15,1.815-5.5,2.736-9.965,2.736a27.655,27.655,0,0,1-11.5-2.38,28.743,28.743,0,0,1-9.514-7.139Zm528.97-59.514v83.8h57.027v-16.207H1396.81v-18.129h33.256v-16.208H1396.81V-227.6h38.778v-16.208Zm-62.67,53.066h13.086l14.647,30.734h20.289l-16.448-32.9a24.137,24.137,0,0,0,6.708-3.752,20.458,20.458,0,0,0,4.757-5.492,28.721,28.721,0,0,0,3.782-14.887,31.749,31.749,0,0,0-1.8-10.925,24.8,24.8,0,0,0-5.1-8.465,22.449,22.449,0,0,0-7.983-5.462,27.41,27.41,0,0,0-10.445-1.922h-39.739v83.8h18.248v-30.733ZM995.34-243.812v83.8h50.184v-16.207h-31.936v-67.593ZM787.161-174.539v14.527H827.02v-14.527H816.215v-54.746H827.02v-14.527H787.161v14.527h10.805v54.746Zm-80.438-69.273v83.8H738.3a41.873,41.873,0,0,0,15.127-2.641,30.629,30.629,0,0,0,11.645-7.863,36.1,36.1,0,0,0,7.444-13.086,57.813,57.813,0,0,0,2.642-18.309,57.814,57.814,0,0,0-2.642-18.309,36.1,36.1,0,0,0-7.444-13.087,30.628,30.628,0,0,0-11.645-7.863,41.871,41.871,0,0,0-15.127-2.642ZM613.8-179.942h27.973l6,19.93h18.969l-27.253-83.8H616.92l-27.613,83.8H607.8l6-19.929Zm-72.755,5.4v14.527H580.9v-14.527H570.1v-54.746H580.9v-14.527H541.044v14.527h10.805v54.746Zm-80.438-69.273v83.8h31.575a41.875,41.875,0,0,0,15.127-2.641,30.631,30.631,0,0,0,11.645-7.863A36.1,36.1,0,0,0,526.4-183.6a57.813,57.813,0,0,0,2.642-18.309A57.814,57.814,0,0,0,526.4-220.22a36.1,36.1,0,0,0-7.444-13.087,30.631,30.631,0,0,0-11.645-7.863,41.872,41.872,0,0,0-15.127-2.642Zm-72.875,0v83.8h57.027v-16.207H405.98v-18.129h33.256v-16.208H405.98V-227.6h38.778v-16.208ZM351.715-215h.36v54.986h17.168v-83.8H349.794L329.5-204.553h-.239l-20.53-39.259H289.4v83.8h17.168v-55.826h.36l6.363,13.206L329.264-173.1l16.328-29.654L351.714-215Zm736.07,40.219a19.03,19.03,0,0,1-7.369-1.351,14.711,14.711,0,0,1-5.538-4.052,17.863,17.863,0,0,1-3.466-6.573,31.368,31.368,0,0,1-1.156-8.914v-12.486a31.364,31.364,0,0,1,1.156-8.914,17.87,17.87,0,0,1,3.466-6.573,14.707,14.707,0,0,1,5.538-4.052,19.03,19.03,0,0,1,7.369-1.351,19.025,19.025,0,0,1,7.368,1.351,14.707,14.707,0,0,1,5.538,4.052,17.87,17.87,0,0,1,3.466,6.573,31.37,31.37,0,0,1,1.156,8.914v12.486a31.374,31.374,0,0,1-1.156,8.914,17.863,17.863,0,0,1-3.466,6.573,14.711,14.711,0,0,1-5.538,4.052A19.025,19.025,0,0,1,1087.784-174.779ZM738.3-176.219H724.972V-227.6H738.3a21.815,21.815,0,0,1,7.293,1.14,15.135,15.135,0,0,1,5.552,3.422,14.182,14.182,0,0,1,3.512,5.943,28.852,28.852,0,0,1,1.171,8.7v12.966a28.852,28.852,0,0,1-1.171,8.7,14.182,14.182,0,0,1-3.512,5.943,15.141,15.141,0,0,1-5.552,3.422A21.81,21.81,0,0,1,738.3-176.219Zm-246.117,0H478.855V-227.6h13.326a21.815,21.815,0,0,1,7.293,1.14,15.135,15.135,0,0,1,5.552,3.422,14.178,14.178,0,0,1,3.512,5.943,28.852,28.852,0,0,1,1.171,8.7v12.966a28.851,28.851,0,0,1-1.171,8.7,14.178,14.178,0,0,1-3.512,5.943,15.142,15.142,0,0,1-5.552,3.422A21.81,21.81,0,0,1,492.181-176.219Zm145.148-19.21H618.121l9.244-31.815h.6l9.364,31.813ZM1335.1-206.114h-19.209v-21.85H1335.1a9.309,9.309,0,0,1,6.423,2.1,7.914,7.914,0,0,1,2.341,6.183v5.282a7.914,7.914,0,0,1-2.341,6.183A9.306,9.306,0,0,1,1335.1-206.114Z" transform="translate(-126 431)" fill="#fff"/>
  </g>
</svg>
