<svg xmlns="http://www.w3.org/2000/svg" width="657" height="69.001" viewBox="0 0 657 69.001">
  <g id="logo-dark" transform="translate(-139 -163)">
    <path id="Subtraction_35" data-name="Subtraction 35" d="M657,69H0V0H657V69ZM617.073,43.425l-6.206,6.3a22.261,22.261,0,0,0,6.764,5.084,21.781,21.781,0,0,0,9.681,1.964,23.367,23.367,0,0,0,7.2-1.029,15.063,15.063,0,0,0,5.306-2.9,12.363,12.363,0,0,0,3.258-4.489,14.544,14.544,0,0,0,1.117-5.737c0-3.765-1.086-6.712-3.227-8.76s-5.481-3.443-9.93-4.146l-4.282-.687a8.433,8.433,0,0,1-3.94-1.417A3.917,3.917,0,0,1,621.6,24.4a3.593,3.593,0,0,1,1.552-3.082,8.18,8.18,0,0,1,4.717-1.109,12.074,12.074,0,0,1,5.554,1.14,12.6,12.6,0,0,1,3.755,2.929l6.268-6.364a17.59,17.59,0,0,0-6.392-4.554,22.278,22.278,0,0,0-8.627-1.56,22.505,22.505,0,0,0-6.857.967,14.928,14.928,0,0,0-5.089,2.713,11.921,11.921,0,0,0-3.2,4.179,12.758,12.758,0,0,0-1.117,5.363,12.167,12.167,0,0,0,3.2,8.793c2.121,2.193,5.514,3.6,10.084,4.178l4.282.555c2.018.287,3.375.837,4.034,1.636a4.563,4.563,0,0,1,.994,2.993,4.708,4.708,0,0,1-1.676,3.766,7.875,7.875,0,0,1-5.151,1.42,14.252,14.252,0,0,1-5.942-1.235A14.858,14.858,0,0,1,617.073,43.425Zm-126.6-30.876V38.21a34,34,0,0,0,.9,8.315,13.525,13.525,0,0,0,2.948,5.792,12.241,12.241,0,0,0,5.275,3.363,29.046,29.046,0,0,0,15.764,0,12.241,12.241,0,0,0,5.275-3.363,13.526,13.526,0,0,0,2.948-5.792,34,34,0,0,0,.9-8.315V12.549H515.3V39.207c0,3.058-.606,5.374-1.8,6.883s-3.22,2.273-6.02,2.273-4.825-.765-6.019-2.273-1.8-3.825-1.8-6.883V12.549ZM455.781,43.425l-6.205,6.3a22.247,22.247,0,0,0,6.764,5.084,21.781,21.781,0,0,0,9.681,1.964,23.355,23.355,0,0,0,7.2-1.029,15.058,15.058,0,0,0,5.306-2.9,12.341,12.341,0,0,0,3.258-4.489,14.529,14.529,0,0,0,1.117-5.737c0-3.765-1.086-6.712-3.227-8.76s-5.482-3.443-9.93-4.146l-4.282-.687a8.433,8.433,0,0,1-3.94-1.417,3.917,3.917,0,0,1-1.21-3.206,3.593,3.593,0,0,1,1.552-3.082,8.178,8.178,0,0,1,4.716-1.109,12.076,12.076,0,0,1,5.555,1.14,12.6,12.6,0,0,1,3.754,2.929l6.269-6.364a17.6,17.6,0,0,0-6.392-4.554,22.284,22.284,0,0,0-8.626-1.56,22.516,22.516,0,0,0-6.858.967,14.935,14.935,0,0,0-5.089,2.713A11.907,11.907,0,0,0,452,19.66a12.745,12.745,0,0,0-1.117,5.363,12.163,12.163,0,0,0,3.2,8.793c2.12,2.193,5.513,3.6,10.085,4.178l4.282.555c2.018.287,3.376.837,4.034,1.636a4.566,4.566,0,0,1,.993,2.993,4.706,4.706,0,0,1-1.676,3.766,7.875,7.875,0,0,1-5.151,1.42,14.251,14.251,0,0,1-5.942-1.235A14.866,14.866,0,0,1,455.781,43.425ZM425.309,11.8a20.73,20.73,0,0,0-7.819,1.433,15.818,15.818,0,0,0-6.02,4.266,19.927,19.927,0,0,0-3.848,7.038,31.751,31.751,0,0,0-1.365,9.748,31.751,31.751,0,0,0,1.365,9.748,19.927,19.927,0,0,0,3.848,7.038,15.832,15.832,0,0,0,6.02,4.267,22.068,22.068,0,0,0,15.639,0,15.821,15.821,0,0,0,6.019-4.267A19.9,19.9,0,0,0,443,44.034a31.726,31.726,0,0,0,1.365-9.748A31.726,31.726,0,0,0,443,24.538a19.9,19.9,0,0,0-3.848-7.038,15.809,15.809,0,0,0-6.019-4.266A20.739,20.739,0,0,0,425.309,11.8Zm-70.685,0a20.3,20.3,0,0,0-7.943,1.495,16.111,16.111,0,0,0-6.02,4.391,20.5,20.5,0,0,0-3.848,7.162,32.129,32.129,0,0,0-1.365,9.748,31.152,31.152,0,0,0,1.365,9.686,19.307,19.307,0,0,0,3.848,6.913,15.818,15.818,0,0,0,6.02,4.173,21.509,21.509,0,0,0,7.943,1.4,17.267,17.267,0,0,0,9.96-2.709,19.4,19.4,0,0,0,6.361-7.692l-7.7-4.485a11.6,11.6,0,0,1-3.073,4.578,7.951,7.951,0,0,1-5.554,1.9,8.705,8.705,0,0,1-6.672-2.71c-1.667-1.8-2.513-4.448-2.513-7.879V30.8c0-3.431.845-6.082,2.513-7.879a8.7,8.7,0,0,1,6.672-2.709,7.8,7.8,0,0,1,5.368,1.651,9.753,9.753,0,0,1,2.7,4.391l8.13-4.235a17.031,17.031,0,0,0-6.268-7.755A18.431,18.431,0,0,0,354.624,11.8Zm-52.44,31.623-6.206,6.3a22.249,22.249,0,0,0,6.764,5.084,21.781,21.781,0,0,0,9.681,1.964,23.355,23.355,0,0,0,7.2-1.029,15.057,15.057,0,0,0,5.306-2.9,12.342,12.342,0,0,0,3.258-4.489,14.53,14.53,0,0,0,1.117-5.737c0-3.765-1.086-6.712-3.227-8.76s-5.482-3.443-9.93-4.146l-4.282-.687a8.442,8.442,0,0,1-3.941-1.417,3.92,3.92,0,0,1-1.21-3.206,3.592,3.592,0,0,1,1.552-3.082,8.178,8.178,0,0,1,4.716-1.109,12.076,12.076,0,0,1,5.555,1.14,12.6,12.6,0,0,1,3.754,2.929l6.268-6.364a17.6,17.6,0,0,0-6.392-4.554,22.284,22.284,0,0,0-8.626-1.56,22.517,22.517,0,0,0-6.858.967,14.935,14.935,0,0,0-5.089,2.713,11.907,11.907,0,0,0-3.2,4.179,12.744,12.744,0,0,0-1.117,5.363,12.164,12.164,0,0,0,3.2,8.793c2.12,2.193,5.513,3.6,10.085,4.178l4.282.555c2.017.287,3.374.837,4.034,1.636a4.566,4.566,0,0,1,.993,2.993,4.706,4.706,0,0,1-1.676,3.766,7.874,7.874,0,0,1-5.151,1.42,14.251,14.251,0,0,1-5.942-1.235A14.864,14.864,0,0,1,302.184,43.425ZM575.617,12.549V56.024H605.1V47.615H585.05v-9.4h17.19V29.8H585.05V20.957H605.1V12.549Zm-32.4,27.53h6.764l7.572,15.945h10.488l-8.5-17.067a11.246,11.246,0,0,0,5.927-4.8,14.947,14.947,0,0,0,1.955-7.724,16.519,16.519,0,0,0-.931-5.668,12.87,12.87,0,0,0-2.637-4.391,11.607,11.607,0,0,0-4.127-2.833,14.1,14.1,0,0,0-5.4-1H533.789V56.024h9.433V40.08Zm-165.7-27.53V56.024h25.941V47.615H386.957V12.549ZM269.914,48.487v7.537h20.6V48.487h-5.585v-28.4h5.585V12.549h-20.6v7.537H275.5v28.4Zm-41.58-35.939V56.024h16.322a21.577,21.577,0,0,0,7.819-1.371,15.833,15.833,0,0,0,6.02-4.08,18.735,18.735,0,0,0,3.848-6.789,30.076,30.076,0,0,0,1.365-9.5,30.076,30.076,0,0,0-1.365-9.5A18.735,18.735,0,0,0,258.494,18a15.833,15.833,0,0,0-6.02-4.08,21.577,21.577,0,0,0-7.819-1.371ZM180.3,45.685h14.46l3.1,10.339h9.805L193.58,12.549H181.913L167.639,56.024H177.2l3.1-10.338Zm-37.608,2.8v7.537h20.6V48.487H157.71v-28.4H163.3V12.549h-20.6v7.537h5.585v28.4ZM101.112,12.549V56.024h16.321a21.576,21.576,0,0,0,7.819-1.371,15.836,15.836,0,0,0,6.02-4.08,18.745,18.745,0,0,0,3.848-6.789,30.1,30.1,0,0,0,1.365-9.5,30.1,30.1,0,0,0-1.365-9.5A18.745,18.745,0,0,0,131.273,18a15.836,15.836,0,0,0-6.02-4.08,21.576,21.576,0,0,0-7.819-1.371Zm-37.67,0V56.024H92.921V47.615H72.875v-9.4H90.066V29.8H72.875V20.957H92.921V12.549ZM44.825,27.5h.186V56.024h8.874V12.549H43.831L33.343,32.917h-.124L22.607,12.549H12.615V56.024H21.49V27.061h.186l3.289,6.852,8.254,15.322,8.44-15.384L44.824,27.5ZM425.309,48.363a8.328,8.328,0,0,1-6.671-2.8c-1.586-1.86-2.389-4.563-2.389-8.034V31.047c0-3.471.8-6.175,2.389-8.034a9.341,9.341,0,0,1,13.342,0c1.586,1.86,2.389,4.563,2.389,8.034v6.478c0,3.472-.8,6.175-2.389,8.034A8.329,8.329,0,0,1,425.309,48.363Zm-180.654-.748h-6.889V20.957h6.889a9.131,9.131,0,0,1,6.64,2.367c1.606,1.57,2.42,4.127,2.42,7.6V37.65c0,3.472-.814,6.029-2.42,7.6A9.131,9.131,0,0,1,244.655,47.615Zm-127.221,0h-6.889V20.957h6.889a9.131,9.131,0,0,1,6.64,2.367c1.606,1.57,2.42,4.127,2.42,7.6V37.65c0,3.472-.814,6.029-2.42,7.6A9.131,9.131,0,0,1,117.434,47.615Zm75.029-9.966h-9.93l4.779-16.505h.311l4.84,16.5Zm360.688-5.543h-9.93V20.77h9.93a4.8,4.8,0,0,1,3.32,1.091,4.112,4.112,0,0,1,1.21,3.208v2.74a4.114,4.114,0,0,1-1.21,3.208A4.8,4.8,0,0,1,553.152,32.107Z" transform="translate(138.999 163)"/>
  </g>
</svg>
